<svg xmlns="http://www.w3.org/2000/svg" viewBox="215.4 321.9 184.8 148.2" width="32" height="32">
  <path d="M303 449.1h-34.5c-29.3 0-53.1-23.8-53.1-53.1s23.8-53.1 53.1-53.1h13.4c9.3 0 16.8-7.5 16.8-16.8v-4.2H317v4.2c0 19.3-15.7 35.1-35.1 35.1h-13.4c-19.2 0-34.8 15.6-34.8 34.8s15.6 34.8 34.8 34.8H303v18.3z" fill="#F74040"/>
  <path d="M316.9 470.1h-18.3v-4.2c0-19.3 15.7-35.1 35.1-35.1h13.4c19.2 0 34.8-15.6 34.8-34.8s-15.6-34.8-34.8-34.8h-35v-18.3h35c29.3 0 53.1 23.8 53.1 53.1s-23.8 53.1-53.1 53.1h-13.4c-9.3 0-16.8 7.5-16.8 16.8v4.2z" fill="#F74040"/>
  <path d="M330.6 381c-5.5 0-9.9 4.4-9.9 9.9v10.3c0 5.5 4.4 9.9 9.9 9.9s9.9-4.4 9.9-9.9v-10.3c0-5.5-4.4-9.9-9.9-9.9zM284.9 381c-5.5 0-9.9 4.4-9.9 9.9v10.3c0 5.5 4.4 9.9 9.9 9.9s9.9-4.4 9.9-9.9v-10.3c0-5.5-4.4-9.9-9.9-9.9z" fill="#F74040"/>
</svg>

